<svg version="1.1" xmlns="http://www.w3.org/2000/svg" xmlns:xlink="http://www.w3.org/1999/xlink" width="585.58559" height="442.94294" viewBox="0,0,585.58559,442.94294"><g transform="translate(61.05105,43.72372)"><g data-paper-data="{&quot;isPaintingLayer&quot;:true}" fill-rule="nonzero" stroke="none" stroke-linecap="butt" stroke-linejoin="miter" stroke-miterlimit="10" stroke-dasharray="" stroke-dashoffset="0" style="mix-blend-mode: normal"><path d="M-17.50751,366.18619v-382.88288h509.00901v382.88288z" fill="#ff5959" stroke-width="0"/><path d="M27.53754,385.70571v-429.42943h69.06907v429.42943z" fill="#ff2828" stroke-width="0"/><path d="M126.63664,399.21922v-424.92492h60.06006v424.92492z" fill="#ff2828" stroke-width="0"/><path d="M-61.05105,77.8979v-55.55556h585.58559v55.55556z" fill="#ff2828" stroke-width="0"/><path d="M471.17718,58.37838c0,28.44267 -23.7821,51.5 -53.1188,51.5c-29.3367,0 -53.1188,-23.05733 -53.1188,-51.5c0,-28.44267 23.7821,-51.5 53.1188,-51.5c29.3367,0 53.1188,23.05733 53.1188,51.5z" fill="#ffab19" stroke-width="0"/><path d="M387.65702,41.42642c-2.5,0 -2.5,-2.5 -2.5,-2.5l0.12829,-2.55297c1.48438,-4.45314 2.68171,-9.59973 7.81564,-11.29534c2.51101,-0.82933 4.5341,0.15977 6.80223,0.90222c0.5544,0.18148 5.57116,1.84158 5.81095,2.00748c3.93426,2.72184 4.66388,5.66424 4.71047,10.05741c0,0 0,2.5 -2.5,2.5c-2.5,0 -2.5,-2.5 -2.5,-2.5c0.07532,-5.23412 -2.6701,-5.81319 -7.10256,-7.32148c-0.68543,-0.23324 -2.76309,-1.2039 -3.77217,-0.86017c-3.0496,1.03881 -3.66808,5.53183 -4.52114,8.09102l0.12829,0.97183c0,0 0,2.5 -2.5,2.5z" fill="#000000" stroke-width="0.5"/><path d="M441.64698,42.04368c-2.23607,1.11803 -3.3541,-1.11803 -3.3541,-1.11803l-1.14513,-2.88043c0.04898,-3.40335 -0.90942,-3.81108 -2.38939,-6.83241c-0.3387,-0.69145 -0.20536,-1.57711 -0.62218,-2.22449c-1.51318,-2.35017 -7.42717,-0.86744 -7.95729,1.85057c-0.40367,2.06968 0.10727,4.21645 0.10727,6.32513c0,0 0,2.5 -2.5,2.5c-2.5,0 -2.5,-2.5 -2.5,-2.5c0,-1.48611 -0.01842,-7.3298 0.10727,-7.77405c1.96179,-6.93402 12.1978,-8.54092 16.71628,-3.43662c0.72206,0.81567 0.64632,2.09174 1.14022,3.0627c1.73275,3.40644 2.85564,5.05279 2.89781,9.02917l0.61726,0.64437c0,0 1.11804,2.23606 -1.11803,3.3541z" fill="#000000" stroke-width="0.5"/><path d="M434.36056,54.05039c1.38071,0 2.5,1.11929 2.5,2.5c0,0.51056 -0.15305,0.98537 -0.41576,1.38106c0.21413,0.07631 0.40573,0.19478 0.56473,0.37597c0.98311,1.12041 0.48816,2.94091 0.73224,4.41136c0,4.69914 0.03695,9.40026 0,14.09919c-0.01074,1.36653 0.2801,2.77739 -0.06687,4.09918c-0.70776,2.69618 -3.16154,4.59212 -4.71249,6.90833c-1.43616,2.14477 -2.07321,4.88071 -3.93339,6.6702c-3.43882,3.30814 -7.06461,2.44626 -11.41123,2.44626c-3.25653,0 -8.19611,0.78894 -11.29884,-0.10727c-1.24995,-0.36104 -2.21407,-1.36743 -3.30589,-2.07501c-2.1629,-1.40172 -4.72105,-2.95387 -6.07594,-5.25437c-0.699,-1.18686 -0.6453,-2.68185 -1.08444,-3.98737c-0.53657,-1.59519 -1.51389,-3.051 -1.83855,-4.7024c-0.31373,-1.59578 -0.03007,-3.25251 -0.04511,-4.87876c0,-5.28692 -0.02598,-10.57471 0,-15.86158c0.01163,-2.36682 -0.32082,-5.54212 1.91942,-7.3153c1.50291,-1.18957 7.38466,-0.47189 9.39256,-0.47189c9.1969,0 18.45767,-1.03227 27.22654,1.89068c0,0 0.23029,0.07676 0.52343,0.25421c0.38512,-0.24232 0.84099,-0.3825 1.3296,-0.3825z" fill="#000000" stroke-width="0.5"/><path d="M405.38889,88.16175c0.80644,-0.6865 0.93901,-1.97752 1.7624,-2.6436c3.20457,-2.5923 9.70884,-4.51117 13.83455,-3.16213c3.77839,1.23547 9.40666,5.51686 7.77574,10.34381c-0.24688,0.73069 -0.76951,1.30303 -1.41522,1.77556c-0.05233,0.76667 -0.23979,1.51677 -0.55235,2.16207c-0.74298,1.53391 -2.94031,1.72486 -4.39661,2.61035c-1.06741,0.64903 -1.9845,1.61101 -3.17395,1.99285c-3.07877,0.98835 -9.59777,0.43556 -12.39722,-1.02814c-1.79802,-0.9401 -5.44022,-3.22639 -5.21308,-6.13296c-0.86997,-0.39122 -1.47573,-1.26548 -1.47573,-2.28122c0,-1.38071 1.11929,-2.5 2.5,-2.5h0.3956c0.82647,-0.31487 1.691,-0.5706 2.35589,-1.13659zM423.60917,89.80316c0.01857,0.12524 0.03431,0.24755 0.0473,0.36699c0.09276,-0.00408 0.18544,-0.00783 0.27777,-0.01081c-0.08659,-0.12291 -0.19789,-0.24208 -0.32507,-0.35618z" fill="#ff0000" stroke-width="0.5"/><path d="M275.34116,44.17871l35.20323,-33.14599l2.65611,47.64449z" fill="#ff0000" stroke-width="0"/><path d="M310.81081,107.41742l21.02102,-43.54354l19.51952,43.54354z" fill="#ff0000" stroke-width="0"/><path d="M398.39339,164.96997l21.02102,-43.54354l19.51952,43.54354z" fill="#ff0000" stroke-width="0"/><path d="M349.35435,156.47147v-39.03904h36.03604v39.03904z" fill="#e2ff00" stroke-width="0"/><path d="M259.19889,96.28338l-9.74863,-37.80226l34.8944,-8.99874l9.74863,37.80226z" fill="#e2ff00" stroke-width="0"/><path d="M329.32432,31.33634v-39.03904h36.03604v39.03904z" fill="#e2ff00" stroke-width="0"/></g></g></svg>