<svg version="1.1" xmlns="http://www.w3.org/2000/svg" xmlns:xlink="http://www.w3.org/1999/xlink" width="436.89544" height="319.92765" viewBox="0,0,436.89544,319.92765"><g transform="translate(-27.2928,-11.52116)"><g data-paper-data="{&quot;isPaintingLayer&quot;:true}" fill-rule="nonzero" stroke="none" stroke-linecap="butt" stroke-linejoin="miter" stroke-miterlimit="10" stroke-dasharray="" stroke-dashoffset="0" style="mix-blend-mode: normal"><path d="M464.18825,37.35736c0,13.11248 -10.96389,23.74224 -24.48853,23.74224c-13.52464,0 -24.48853,-10.62976 -24.48853,-23.74224c0,-13.11248 10.96389,-23.74224 24.48853,-23.74224c13.52464,0 24.48853,10.62976 24.48853,23.74224z" fill="#ffab19" stroke-width="0"/><path d="M425.68426,29.54226c-1.15254,0 -1.15254,-1.15254 -1.15254,-1.15254l0.05914,-1.17696c0.68432,-2.05296 1.23631,-4.42561 3.60312,-5.20731c1.15761,-0.38233 2.09029,0.07366 3.13593,0.41594c0.25559,0.08366 2.56838,0.84899 2.67893,0.92548c1.81375,1.25481 2.15012,2.6113 2.17159,4.63661c0,0 0,1.15254 -1.15254,1.15254c-1.15254,0 -1.15254,-1.15254 -1.15254,-1.15254c0.03472,-2.413 -1.23095,-2.67996 -3.27438,-3.37531c-0.31599,-0.10753 -1.27382,-0.55502 -1.73902,-0.39655c-1.40591,0.47891 -1.69104,2.55025 -2.08431,3.73008l0.05914,0.44803c0,0 0,1.15254 -1.15254,1.15254z" fill="#000000" stroke-width="0.5"/><path d="M450.5744,29.82683c-1.03086,0.51543 -1.54629,-0.51543 -1.54629,-0.51543l-0.52792,-1.32792c0.02258,-1.56899 -0.41926,-1.75696 -1.10154,-3.14984c-0.15615,-0.31877 -0.09467,-0.72707 -0.28683,-1.02552c-0.6976,-1.08346 -3.42403,-0.3999 -3.66842,0.85314c-0.1861,0.95415 0.04945,1.94384 0.04945,2.91598c0,0 0,1.15254 -1.15254,1.15254c-1.15254,0 -1.15254,-1.15254 -1.15254,-1.15254c0,-0.68512 -0.00849,-3.37914 0.04945,-3.58395c0.90441,-3.19668 5.62336,-3.93749 7.70644,-1.58433c0.33288,0.37604 0.29796,0.96432 0.52566,1.41195c0.79882,1.57042 1.31649,2.32941 1.33593,4.16258l0.28457,0.29706c0,0 0.51543,1.03086 -0.51543,1.54629z" fill="#000000" stroke-width="0.5"/><path d="M447.21526,35.36209c0.63653,0 1.15254,0.51601 1.15254,1.15254c0,0.23538 -0.07056,0.45427 -0.19167,0.63669c0.09872,0.03518 0.18705,0.0898 0.26035,0.17333c0.45323,0.51653 0.22505,1.3558 0.33757,2.0337c0,2.16637 0.01703,4.33365 0,6.49993c-0.00495,0.62999 0.12913,1.28042 -0.03083,1.88978c-0.32629,1.24298 -1.45752,2.11703 -2.17253,3.18484c-0.66209,0.98877 -0.95578,2.25008 -1.81335,3.07506c-1.58535,1.5251 -3.25689,1.12776 -5.26074,1.12776c-1.50131,0 -3.77852,0.36371 -5.20893,-0.04945c-0.57624,-0.16644 -1.02072,-0.6304 -1.52406,-0.95661c-0.99713,-0.64621 -2.17647,-1.36178 -2.8011,-2.42234c-0.32225,-0.54716 -0.29749,-1.23637 -0.49994,-1.83823c-0.24737,-0.73541 -0.69792,-1.40655 -0.8476,-2.16787c-0.14463,-0.73568 -0.01386,-1.49945 -0.0208,-2.24918c0,-2.43735 -0.01198,-4.87509 0,-7.31242c0.00536,-1.09114 -0.1479,-2.555 0.88488,-3.37246c0.69286,-0.54841 3.40443,-0.21755 4.3301,-0.21755c4.2399,0 8.50925,-0.47589 12.55182,0.87163c0,0 0.10617,0.03539 0.24131,0.11719c0.17755,-0.11171 0.38771,-0.17634 0.61296,-0.17634z" fill="#000000" stroke-width="0.5"/><path d="M433.85889,51.08792c0.37178,-0.31649 0.4329,-0.91167 0.81249,-1.21874c1.47735,-1.19509 4.47591,-2.07971 6.37793,-1.45779c1.74189,0.56957 4.3366,2.54335 3.58473,4.76864c-0.11382,0.33686 -0.35476,0.60072 -0.65244,0.81856c-0.02412,0.35345 -0.11055,0.69925 -0.25464,0.99675c-0.34252,0.70715 -1.35553,0.79519 -2.0269,1.20341c-0.49209,0.29921 -0.91488,0.7427 -1.46324,0.91873c-1.41936,0.45564 -4.42471,0.2008 -5.7153,-0.47399c-0.82891,-0.4334 -2.50802,-1.48741 -2.4033,-2.82738c-0.40107,-0.18036 -0.68033,-0.5834 -0.68033,-1.05168c0,-0.63653 0.51601,-1.15254 1.15254,-1.15254h0.18238c0.38101,-0.14516 0.77958,-0.26305 1.0861,-0.52398zM442.25871,51.84463c0.00856,0.05774 0.01582,0.11412 0.02181,0.16919c0.04276,-0.00188 0.08549,-0.00361 0.12806,-0.00498c-0.03992,-0.05666 -0.09123,-0.1116 -0.14986,-0.1642z" fill="#ff0000" stroke-width="0.5"/><path d="M44.81532,30.15752l11,-18.63636l10,18.63636z" fill="#ff0000" stroke-width="0"/><path d="M27.2928,54.67704l11,-18.63636l10,18.63636z" fill="#ff0000" stroke-width="0"/><path d="M39.8003,331.44881l11,-18.63636l10,18.63636z" fill="#ff0000" stroke-width="0"/><path d="M435.1907,279.39176l11,-18.63636l10,18.63636z" fill="#ff0000" stroke-width="0"/><path d="M419.16968,305.41277l11,-18.63636l10,18.63636z" fill="#ff0000" stroke-width="0"/></g></g></svg>