<svg version="1.1" xmlns="http://www.w3.org/2000/svg" xmlns:xlink="http://www.w3.org/1999/xlink" width="38.33887" height="22.15866" viewBox="0,0,38.33887,22.15866"><g transform="translate(-220.7086,-168.32901)"><g data-paper-data="{&quot;isPaintingLayer&quot;:true}" fill-rule="nonzero" stroke-linejoin="miter" stroke-miterlimit="10" stroke-dasharray="" stroke-dashoffset="0" style="mix-blend-mode: normal"><g stroke="#703d00" stroke-linecap="round"><path d="M238.96792,169.63627c4.79427,0 8.35287,1.20376 12.28437,3.2737c1.86821,0.98594 3.64954,2.75256 4.6871,5.27191c0.82153,2.01457 1.26542,4.95276 0.52402,6.98947c-0.85736,2.35532 -2.83883,3.41245 -4.53023,4.00905c-3.86963,1.35887 -7.91304,1.56141 -11.88341,1.39788c-4.47005,0.00372 -9.01178,-0.14135 -13.36622,-1.87579c-1.64576,-0.65519 -3.11267,-2.59535 -4.09547,-4.74441c-0.63051,-1.43484 -1.10991,-3.85766 -0.52402,-5.59159c0.97806,-2.48507 2.73504,-4.40731 4.61949,-5.45653c3.90919,-2.16437 7.4901,-3.2737 12.28437,-3.2737z" data-paper-data="{&quot;origPos&quot;:null}" fill="#a85b00" stroke-width="2.61452"/><path d="M238.92103,169.6719c4.79664,0 8.33374,0.21394 12.29015,1.80486c1.84046,0.7409 4.4374,2.55624 4.36941,4.77034c0.06799,2.13935 -2.66124,3.4115 -4.36941,3.93657c-4.04448,1.2426 -8.19651,1.53943 -12.38914,1.47131c-4.20315,0.00095 -8.59173,-0.52077 -12.75034,-1.92968c-1.38524,-0.46743 -3.49487,-1.67382 -3.31542,-3.47821c0.10027,-2.31989 2.20765,-4.10855 3.8746,-4.77034c3.96561,-1.57331 7.49351,-1.80486 12.29015,-1.80486z" data-paper-data="{&quot;origPos&quot;:null}" fill="#a85b00" stroke-width="2.4183"/><path d="M239.99341,169.77244c7.15212,-0.00889 8.75958,1.3282 12.93145,2.47361c1.96152,0.53889 4.19756,1.82968 4.88522,3.66814c0.95743,2.56262 0.89016,7.05601 -0.35498,8.19837c-0.88272,0.81172 -2.28946,-3.80607 -3.83718,-4.00622c-0.97941,-0.23091 -0.14808,2.59779 -1.21708,3.14412c-1.45373,0.73498 -4.0718,-1.54434 -4.88522,-0.35498c-0.9216,1.35062 1.80263,3.55894 1.21708,5.2402c-0.28838,1.09132 -2.49061,1.77389 -3.14412,0.879c-1.24547,-1.70729 0.18256,-4.46093 -0.879,-6.28823c-0.55749,-0.96183 -2.31651,-1.00578 -3.14412,-0.35498c-1.55549,1.22756 -1.3753,3.93421 -2.95818,5.07116c-0.84688,0.60752 -2.19142,0.18256 -2.97508,-0.35498c-1.98113,-1.67416 -2.47709,-5.47347 -4.88522,-5.93326c-1.81683,-0.34923 -2.77933,4.37945 -4.02312,3.83718c-1.40539,-0.61935 0.17107,-5.32539 -1.04804,-6.45727c-0.75358,-0.69644 -2.19412,3.34764 -2.95818,2.78914c-0.88779,-0.75493 -0.99259,-3.72426 -0.35498,-5.40923c0.66534,-1.70391 2.21643,-3.28476 3.97511,-3.77362c4.39737,-1.2208 3.67557,-1.84874 13.65561,-2.36813z" data-paper-data="{&quot;origPos&quot;:null}" fill="#703d00" stroke-width="1.99513"/></g><path d="M239.28909,169.37354c4.33483,0.10677 8.77378,0.35823 12.93145,1.61719c2.15355,0.65384 4.83078,1.99073 5.81493,4.20825c1.05548,2.4251 0.9882,7.04025 -0.52402,8.20777c-1.04804,0.77139 -2.70022,-4.05625 -4.59785,-4.32996c-1.04365,-0.16069 -0.14808,2.6724 -1.21708,3.23442c-1.45373,0.75608 -4.0718,-1.58869 -4.88522,-0.36519c-0.9216,1.38943 1.80263,3.66117 1.21708,5.39071c-0.28838,1.12265 -2.49061,1.82484 -3.14412,0.90425c-1.24547,-1.75635 0.18256,-4.58906 -0.879,-6.46884c-0.55749,-0.98945 -2.31651,-1.03469 -3.14412,-0.36519c-1.55549,1.26282 -1.3753,4.04719 -2.95818,5.2168c-0.84688,0.62497 -2.19142,0.1878 -2.97508,-0.36516c-1.98113,-1.72223 -2.47709,-5.63067 -4.88522,-6.10368c-1.81683,-0.35924 -2.77933,4.50525 -4.02312,3.94739c-1.40539,-0.63714 0.17107,-5.47834 -1.04804,-6.64274c-0.75358,-0.71642 -2.19412,3.44379 -2.95818,2.86926c-0.88779,-0.7766 -0.99259,-3.83123 -0.35498,-5.56458c0.66534,-1.75286 2.21643,-3.37912 3.97511,-3.882c4.39737,-1.25586 9.08481,-1.43811 13.65561,-1.5087z" fill="#ddc6d2" stroke="#ddc6d2" stroke-width="2.02398" stroke-linecap="round"/><path d="M239.75395,173.19267c1.10754,0 2.11129,0.07776 2.83816,0.20319c0.72653,0.12542 1.17651,0.29852 1.17651,0.48987c0,0.19135 -0.44998,0.36445 -1.17651,0.48987c-0.72687,0.12542 -1.73062,0.20319 -2.83816,0.20319c-1.10754,0 -2.11129,-0.07776 -2.83816,-0.20319c-0.72653,-0.12542 -1.17651,-0.29852 -1.17651,-0.48987c0,-0.19135 0.44998,-0.36445 1.17651,-0.48987c0.72687,-0.12542 1.73062,-0.20319 2.83816,-0.20319z" fill="#a85b00" stroke="#703d00" stroke-width="1.99513" stroke-linecap="butt"/><g fill="none" stroke="#6148a4" stroke-width="1.99513" stroke-linecap="round"><path d="M231.71616,178.02602l1.04804,-2.26512" data-paper-data="{&quot;origPos&quot;:null}"/><path d="M238.8834,170.57257h2.09608" data-paper-data="{&quot;origPos&quot;:null}"/><path d="M239.93144,180.17396l2.09608,-0.69306" data-paper-data="{&quot;origPos&quot;:null}"/><path d="M246.03373,176.8608l1.92704,0.69306" data-paper-data="{&quot;origPos&quot;:null}"/><path d="M227.35497,180.52894l1.7411,-0.69306" data-paper-data="{&quot;origPos&quot;:null}"/><path d="M222.99377,175.05094v1.40302" data-paper-data="{&quot;origPos&quot;:null}"/><path d="M232.95015,170.23449l-1.57206,0.16904" data-paper-data="{&quot;origPos&quot;:null}"/><path d="M257.91714,177.55386v1.92704" data-paper-data="{&quot;origPos&quot;:null}"/><path d="M246.21967,174.24071h1.57206" data-paper-data="{&quot;origPos&quot;:null}"/><path d="M245.86469,170.23449h1.04804z" data-paper-data="{&quot;origPos&quot;:null}"/></g><g fill="none" stroke="#9b4976" stroke-width="1.99513" stroke-linecap="round"><path d="M232.07115,173.02363l-1.7411,0.33808" data-paper-data="{&quot;origPos&quot;:null}"/><path d="M235.90832,177.55386h2.09608" data-paper-data="{&quot;origPos&quot;:null}"/><path d="M249.70187,175.64373v-1.57206" data-paper-data="{&quot;origPos&quot;:null}"/><path d="M242.88961,170.92755l1.758,1.04804" data-paper-data="{&quot;origPos&quot;:null}"/><path d="M255.82106,176.8608v1.92704" data-paper-data="{&quot;origPos&quot;:null}"/><path d="M254.07997,172.83769h-1.40302" data-paper-data="{&quot;origPos&quot;:null}"/><path d="M225.25889,175.45778l1.57206,-1.57206" data-paper-data="{&quot;origPos&quot;:null}"/></g><g fill="none" stroke="#ffffff" stroke-width="1.99513" stroke-linecap="round"><path d="M228.57204,177.21578l-1.38611,0.33808" data-paper-data="{&quot;origPos&quot;:null}"/><path d="M236.61828,172.14463l-1.40302,-1.21708" data-paper-data="{&quot;origPos&quot;:null}"/><path d="M237.59755,181.74602l-1.38611,1.23398" data-paper-data="{&quot;origPos&quot;:null}"/><path d="M243.53081,179.83588l1.40302,1.04804" data-paper-data="{&quot;origPos&quot;:null}"/><path d="M248.07795,180.00492l-0.16904,1.04804z" data-paper-data="{&quot;origPos&quot;:null}"/><path d="M249.81904,171.45157h-1.57206" data-paper-data="{&quot;origPos&quot;:null}"/><path d="M254.0112,176.33678l-1.38611,0.35498" data-paper-data="{&quot;origPos&quot;:null}"/><path d="M223.33185,173.02363l1.92704,-0.70996" data-paper-data="{&quot;origPos&quot;:null}"/><path d="M228.68922,172.66865l-0.52402,-1.21708z" data-paper-data="{&quot;origPos&quot;:null}"/><path d="M243.19273,176.50582l-0.18594,-0.8621z" data-paper-data="{&quot;origPos&quot;:null}"/></g></g></g></svg>