<svg version="1.1" xmlns="http://www.w3.org/2000/svg" xmlns:xlink="http://www.w3.org/1999/xlink" width="28.1336" height="28.65462" viewBox="0,0,28.1336,28.65462"><g transform="translate(-225.9332,-165.67269)"><g data-paper-data="{&quot;isPaintingLayer&quot;:true}" fill-rule="nonzero" stroke="none" stroke-width="1" stroke-linecap="butt" stroke-linejoin="miter" stroke-miterlimit="10" stroke-dasharray="" stroke-dashoffset="0" style="mix-blend-mode: normal"><g><path d="M252.65008,181.22594c0,6.569 -5.66371,11.89582 -12.65144,11.89582c-6.98773,0 -12.65098,-5.32456 -12.65098,-11.89582c0,-6.569 5.6628,-9.62039 12.65098,-9.62039c6.98728,-0.00045 12.65144,3.05185 12.65144,9.62039z" fill="#ec1c2c"/><g fill="#231f20"><path d="M254.0668,181.09888c0,7.30562 -6.29768,13.22843 -14.06725,13.22843c-7.76821,0 -14.06635,-5.92281 -14.06635,-13.22843c0,-6.43831 4.89317,-9.33687 11.37218,-9.93557c0,0 2.04753,-0.26227 4.13123,-0.08546c7.09218,0.3301 12.63018,3.17303 12.63018,10.02103zM251.92069,181.29287c0,-5.69853 -4.52509,-8.58442 -10.37736,-9.00767c0,0 -3.71114,0.052 -3.82374,0.06512c-5.49188,0.60639 -9.63803,3.4864 -9.63803,8.94165c0,6.1887 5.33496,11.20759 11.91843,11.20759c6.58302,0 11.91798,-5.01798 11.92069,-11.20668z"/><path d="M244.04803,175.19505c-1.61342,0.08185 -3.15902,0.12254 -4.7756,0.30387c-1.07938,0.12119 -2.11943,0.13068 -2.9189,-0.68462c-0.17364,-0.17862 0.05336,-0.48656 0.27041,-0.34954c0.53449,0.33507 1.07305,0.47073 1.61478,0.49696c0.03527,0.02894 1.93267,-0.22157 2.79907,-0.49651c1.04547,-0.28488 2.09184,-0.52002 3.13324,-0.1759c0.49786,0.1646 0.40155,0.87816 -0.123,0.90574z"/></g><path d="M231.61048,181.16218c0,1.55147 0.83656,2.80902 -0.03798,2.80902c-0.87454,0 -1.58267,-1.25755 -1.58267,-2.80902c0,-1.55102 0.70813,-2.80857 1.58267,-2.80857c0.87454,0 0.03798,1.258 0.03798,2.80857z" fill="#ffffff"/></g><g><path d="M236.83827,167.7886c0.46169,-0.27584 0.92202,-0.55258 1.38326,-0.82887c0.33191,0.51007 0.66563,1.00794 0.93332,1.57453c0.97764,2.06381 0.7624,4.24382 0.73436,6.42656c-0.16957,0.04025 -0.44179,0.06919 -0.60956,0.09903c0.11667,-2.78008 -0.54489,-5.32863 -2.44139,-7.27125z" fill="#99661d"/><path d="M240.98985,174.00714c0,0 -0.104,0.84831 -0.1135,1.00839c0,0 -1.70522,0.50826 -2.37401,0.25413l-0.0208,-0.72758c0.01357,-1.4538 -0.43863,-3.01522 -0.70632,-3.50404c-0.12797,-0.23333 -0.64347,-1.5673 -2.21574,-2.96502c-0.26951,-0.23831 -0.17862,-0.68507 0.10943,-0.85826c0.81711,-0.49018 1.63196,-0.98035 2.44817,-1.47053c0.26227,-0.15691 0.57202,-0.03979 0.74973,0.1967c2.49972,3.32723 2.19946,7.72209 2.12304,8.06621zM239.84309,174.33001c0.05065,-2.00864 0.22157,-3.87529 -0.68824,-5.79575c-0.2677,-0.5666 -0.60142,-1.06446 -0.93332,-1.57453c-0.46124,0.27629 -0.92157,0.55303 -1.38326,0.82887c1.79159,1.835 2.52323,4.05571 2.50062,6.63954v0.52093l0.50148,-0.06376z" fill="#231f20"/></g></g></g></svg>